# xmcd CD database file
#
# Track frame offsets:
#	150
#	19150
#	37980
#	56932
#
# Disc length: 1008 seconds
#
# Revision: 0
# Processed by: cddbd v1.5.1PL0 Copyright (c) Steve Scherf et al.
# Submitted via: CDex 1.51
#
DISCID=2e03ee04
DTITLE=亜波根綾乃 - 小さな勇気
DYEAR=1998
DGENRE=JPop
TTITLE0=小さな勇気
TTITLE1=I Love Everything
TTITLE2=小さな勇気 (Instrumental)
TTITLE3=I Love Everything (Instrumental)
EXTD=YEAR: 1998
EXTT0=
EXTT1=
EXTT2=
EXTT3=
PLAYORDER=
